<mxfile host="65bd71144e">
    <diagram id="IKs-HJXDsRrYgf6DWsiw" name="Page-1">
        <mxGraphModel dx="440" dy="404" grid="1" gridSize="10" guides="1" tooltips="1" connect="1" arrows="1" fold="1" page="1" pageScale="1" pageWidth="850" pageHeight="1100" math="0" shadow="0">
            <root>
                <mxCell id="0"/>
                <mxCell id="1" parent="0"/>
                <mxCell id="7" value="" style="ellipse;whiteSpace=wrap;html=1;aspect=fixed;fillStyle=auto;strokeColor=#000000;fillColor=#000000;" parent="1" vertex="1">
                    <mxGeometry x="430" y="1025" width="15" height="15" as="geometry"/>
                </mxCell>
                <mxCell id="8" value="i = 0" style="text;html=1;align=center;verticalAlign=middle;whiteSpace=wrap;rounded=0;strokeColor=none;" parent="1" vertex="1">
                    <mxGeometry x="407.5" y="1040" width="60" height="30" as="geometry"/>
                </mxCell>
                <mxCell id="10" value="" style="ellipse;whiteSpace=wrap;html=1;aspect=fixed;strokeColor=#000000;fillStyle=auto;fillColor=#000000;" parent="1" vertex="1">
                    <mxGeometry x="407.5" y="940" width="15" height="15" as="geometry"/>
                </mxCell>
                <mxCell id="11" value="i = 0" style="text;html=1;align=center;verticalAlign=middle;whiteSpace=wrap;rounded=0;strokeColor=none;" parent="1" vertex="1">
                    <mxGeometry x="407.5" y="955" width="60" height="30" as="geometry"/>
                </mxCell>
                <mxCell id="12" value="" style="ellipse;whiteSpace=wrap;html=1;aspect=fixed;strokeColor=#000000;fillStyle=auto;fillColor=#000000;" parent="1" vertex="1">
                    <mxGeometry x="452.5" y="940" width="15" height="15" as="geometry"/>
                </mxCell>
                <mxCell id="14" value="" style="endArrow=none;html=1;strokeColor=#000000;" parent="1" edge="1">
                    <mxGeometry width="50" height="50" relative="1" as="geometry">
                        <mxPoint x="80" y="900" as="sourcePoint"/>
                        <mxPoint x="800" y="900" as="targetPoint"/>
                    </mxGeometry>
                </mxCell>
                <mxCell id="15" value="k = 0" style="text;html=1;align=center;verticalAlign=middle;whiteSpace=wrap;rounded=0;strokeColor=none;" parent="1" vertex="1">
                    <mxGeometry x="80" y="1017.5" width="60" height="30" as="geometry"/>
                </mxCell>
                <mxCell id="16" value="k = 1" style="text;html=1;align=center;verticalAlign=middle;whiteSpace=wrap;rounded=0;strokeColor=none;" parent="1" vertex="1">
                    <mxGeometry x="80" y="932.5" width="60" height="30" as="geometry"/>
                </mxCell>
                <mxCell id="18" value="" style="endArrow=none;html=1;strokeColor=#000000;" parent="1" edge="1">
                    <mxGeometry width="50" height="50" relative="1" as="geometry">
                        <mxPoint x="80" y="1000" as="sourcePoint"/>
                        <mxPoint x="800" y="1000" as="targetPoint"/>
                    </mxGeometry>
                </mxCell>
                <mxCell id="23" value="" style="ellipse;whiteSpace=wrap;html=1;aspect=fixed;strokeColor=#000000;fillStyle=auto;fillColor=#000000;" parent="1" vertex="1">
                    <mxGeometry x="170" y="810" width="15" height="15" as="geometry"/>
                </mxCell>
                <mxCell id="24" value="i = 0" style="text;html=1;align=center;verticalAlign=middle;whiteSpace=wrap;rounded=0;strokeColor=none;" parent="1" vertex="1">
                    <mxGeometry x="192.5" y="850" width="60" height="30" as="geometry"/>
                </mxCell>
                <mxCell id="25" value="" style="ellipse;whiteSpace=wrap;html=1;aspect=fixed;strokeColor=#000000;fillStyle=auto;fillColor=#000000;" parent="1" vertex="1">
                    <mxGeometry x="260" y="810" width="15" height="15" as="geometry"/>
                </mxCell>
                <mxCell id="26" value="" style="ellipse;whiteSpace=wrap;html=1;aspect=fixed;strokeColor=#000000;fillStyle=auto;fillColor=#000000;" parent="1" vertex="1">
                    <mxGeometry x="400" y="835" width="15" height="15" as="geometry"/>
                </mxCell>
                <mxCell id="27" value="i = 1" style="text;html=1;align=center;verticalAlign=middle;whiteSpace=wrap;rounded=0;strokeColor=none;" parent="1" vertex="1">
                    <mxGeometry x="407.5" y="850" width="60" height="30" as="geometry"/>
                </mxCell>
                <mxCell id="28" value="" style="ellipse;whiteSpace=wrap;html=1;aspect=fixed;strokeColor=#000000;fillStyle=auto;fillColor=#000000;" parent="1" vertex="1">
                    <mxGeometry x="467.5" y="795" width="15" height="15" as="geometry"/>
                </mxCell>
                <mxCell id="29" value="" style="ellipse;whiteSpace=wrap;html=1;aspect=fixed;strokeColor=#000000;fillStyle=auto;fillColor=#000000;" parent="1" vertex="1">
                    <mxGeometry x="625" y="835" width="15" height="15" as="geometry"/>
                </mxCell>
                <mxCell id="30" value="i = 1" style="text;html=1;align=center;verticalAlign=middle;whiteSpace=wrap;rounded=0;strokeColor=none;" parent="1" vertex="1">
                    <mxGeometry x="632.5" y="850" width="60" height="30" as="geometry"/>
                </mxCell>
                <mxCell id="31" value="" style="ellipse;whiteSpace=wrap;html=1;aspect=fixed;strokeColor=#000000;fillStyle=auto;fillColor=#000000;" parent="1" vertex="1">
                    <mxGeometry x="685" y="835" width="15" height="15" as="geometry"/>
                </mxCell>
                <mxCell id="32" value="" style="ellipse;whiteSpace=wrap;html=1;aspect=fixed;strokeColor=#000000;fillStyle=auto;fillColor=#000000;" parent="1" vertex="1">
                    <mxGeometry x="215" y="810" width="15" height="15" as="geometry"/>
                </mxCell>
                <mxCell id="33" value="" style="ellipse;whiteSpace=wrap;html=1;aspect=fixed;strokeColor=#000000;fillStyle=auto;fillColor=#000000;" parent="1" vertex="1">
                    <mxGeometry x="400" y="760" width="15" height="15" as="geometry"/>
                </mxCell>
                <mxCell id="34" value="" style="endArrow=none;html=1;entryX=0.5;entryY=1;entryDx=0;entryDy=0;exitX=0.5;exitY=0;exitDx=0;exitDy=0;strokeColor=#000000;" parent="1" source="26" target="33" edge="1">
                    <mxGeometry width="50" height="50" relative="1" as="geometry">
                        <mxPoint x="402.5" y="920" as="sourcePoint"/>
                        <mxPoint x="452.5" y="870" as="targetPoint"/>
                    </mxGeometry>
                </mxCell>
                <mxCell id="35" value="" style="ellipse;whiteSpace=wrap;html=1;aspect=fixed;strokeColor=#000000;fillStyle=auto;fillColor=#000000;" parent="1" vertex="1">
                    <mxGeometry x="625" y="760" width="15" height="15" as="geometry"/>
                </mxCell>
                <mxCell id="36" value="" style="ellipse;whiteSpace=wrap;html=1;aspect=fixed;strokeColor=#000000;fillStyle=auto;fillColor=#000000;" parent="1" vertex="1">
                    <mxGeometry x="685" y="760" width="15" height="15" as="geometry"/>
                </mxCell>
                <mxCell id="37" value="" style="endArrow=none;html=1;entryX=0.5;entryY=1;entryDx=0;entryDy=0;exitX=0.5;exitY=0;exitDx=0;exitDy=0;strokeColor=#000000;" parent="1" source="29" target="35" edge="1">
                    <mxGeometry width="50" height="50" relative="1" as="geometry">
                        <mxPoint x="590" y="840" as="sourcePoint"/>
                        <mxPoint x="640" y="790" as="targetPoint"/>
                    </mxGeometry>
                </mxCell>
                <mxCell id="38" value="" style="endArrow=none;html=1;exitX=0.5;exitY=1;exitDx=0;exitDy=0;entryX=0.5;entryY=0;entryDx=0;entryDy=0;strokeColor=#000000;" parent="1" source="36" target="31" edge="1">
                    <mxGeometry width="50" height="50" relative="1" as="geometry">
                        <mxPoint x="590" y="840" as="sourcePoint"/>
                        <mxPoint x="640" y="790" as="targetPoint"/>
                    </mxGeometry>
                </mxCell>
                <mxCell id="40" value="" style="endArrow=none;html=1;strokeColor=#000000;" parent="1" edge="1">
                    <mxGeometry width="50" height="50" relative="1" as="geometry">
                        <mxPoint x="77.49999999999989" y="730" as="sourcePoint"/>
                        <mxPoint x="797.5" y="730" as="targetPoint"/>
                    </mxGeometry>
                </mxCell>
                <mxCell id="41" value="k = 2" style="text;html=1;align=center;verticalAlign=middle;whiteSpace=wrap;rounded=0;strokeColor=none;" parent="1" vertex="1">
                    <mxGeometry x="80" y="802.5" width="60" height="30" as="geometry"/>
                </mxCell>
                <mxCell id="42" value="" style="ellipse;whiteSpace=wrap;html=1;aspect=fixed;strokeColor=#000000;fillColor=#000000;" parent="1" vertex="1">
                    <mxGeometry x="270" y="650" width="15" height="15" as="geometry"/>
                </mxCell>
                <mxCell id="43" value="i = 1" style="text;html=1;align=center;verticalAlign=middle;whiteSpace=wrap;rounded=0;strokeColor=none;" parent="1" vertex="1">
                    <mxGeometry x="292.5" y="690" width="60" height="30" as="geometry"/>
                </mxCell>
                <mxCell id="44" value="" style="ellipse;whiteSpace=wrap;html=1;aspect=fixed;strokeColor=#000000;fillColor=#000000;" parent="1" vertex="1">
                    <mxGeometry x="360" y="650" width="15" height="15" as="geometry"/>
                </mxCell>
                <mxCell id="45" value="" style="ellipse;whiteSpace=wrap;html=1;aspect=fixed;strokeColor=#000000;fillColor=#000000;" parent="1" vertex="1">
                    <mxGeometry x="315" y="650" width="15" height="15" as="geometry"/>
                </mxCell>
                <mxCell id="46" value="" style="ellipse;whiteSpace=wrap;html=1;aspect=fixed;strokeColor=#000000;fillColor=#000000;" parent="1" vertex="1">
                    <mxGeometry x="520" y="675" width="15" height="15" as="geometry"/>
                </mxCell>
                <mxCell id="47" value="i = 1" style="text;html=1;align=center;verticalAlign=middle;whiteSpace=wrap;rounded=0;strokeColor=none;" parent="1" vertex="1">
                    <mxGeometry x="542.5" y="690" width="60" height="30" as="geometry"/>
                </mxCell>
                <mxCell id="48" value="" style="ellipse;whiteSpace=wrap;html=1;aspect=fixed;strokeColor=#000000;fillColor=#000000;" parent="1" vertex="1">
                    <mxGeometry x="610" y="635" width="15" height="15" as="geometry"/>
                </mxCell>
                <mxCell id="49" value="" style="ellipse;whiteSpace=wrap;html=1;aspect=fixed;strokeColor=#000000;fillColor=#000000;" parent="1" vertex="1">
                    <mxGeometry x="565" y="635" width="15" height="15" as="geometry"/>
                </mxCell>
                <mxCell id="50" value="" style="ellipse;whiteSpace=wrap;html=1;aspect=fixed;strokeColor=#000000;fillColor=#000000;" parent="1" vertex="1">
                    <mxGeometry x="520" y="600" width="15" height="15" as="geometry"/>
                </mxCell>
                <mxCell id="52" value="" style="endArrow=none;html=1;entryX=0.5;entryY=1;entryDx=0;entryDy=0;exitX=0.5;exitY=0;exitDx=0;exitDy=0;strokeColor=#000000;" parent="1" source="46" target="50" edge="1">
                    <mxGeometry width="50" height="50" relative="1" as="geometry">
                        <mxPoint x="470" y="720" as="sourcePoint"/>
                        <mxPoint x="520" y="670" as="targetPoint"/>
                    </mxGeometry>
                </mxCell>
                <mxCell id="53" value="" style="ellipse;whiteSpace=wrap;html=1;aspect=fixed;strokeColor=#000000;fillColor=#000000;" parent="1" vertex="1">
                    <mxGeometry x="360" y="500" width="15" height="15" as="geometry"/>
                </mxCell>
                <mxCell id="54" value="i = 1" style="text;html=1;align=center;verticalAlign=middle;whiteSpace=wrap;rounded=0;strokeColor=none;" parent="1" vertex="1">
                    <mxGeometry x="407.5" y="540" width="60" height="30" as="geometry"/>
                </mxCell>
                <mxCell id="55" value="" style="ellipse;whiteSpace=wrap;html=1;aspect=fixed;strokeColor=#000000;fillColor=#000000;" parent="1" vertex="1">
                    <mxGeometry x="450" y="500" width="15" height="15" as="geometry"/>
                </mxCell>
                <mxCell id="56" value="" style="ellipse;whiteSpace=wrap;html=1;aspect=fixed;strokeColor=#000000;fillColor=#000000;" parent="1" vertex="1">
                    <mxGeometry x="405" y="500" width="15" height="15" as="geometry"/>
                </mxCell>
                <mxCell id="57" value="" style="endArrow=none;html=1;strokeColor=#000000;" parent="1" edge="1">
                    <mxGeometry width="50" height="50" relative="1" as="geometry">
                        <mxPoint x="80" y="585" as="sourcePoint"/>
                        <mxPoint x="800" y="585" as="targetPoint"/>
                    </mxGeometry>
                </mxCell>
                <mxCell id="58" value="k = 3" style="text;html=1;align=center;verticalAlign=middle;whiteSpace=wrap;rounded=0;strokeColor=none;" parent="1" vertex="1">
                    <mxGeometry x="80" y="642.5" width="60" height="30" as="geometry"/>
                </mxCell>
                <mxCell id="59" value="k = 4" style="text;html=1;align=center;verticalAlign=middle;whiteSpace=wrap;rounded=0;strokeColor=none;" parent="1" vertex="1">
                    <mxGeometry x="80" y="492.5" width="60" height="30" as="geometry"/>
                </mxCell>
                <mxCell id="61" value="" style="ellipse;whiteSpace=wrap;html=1;aspect=fixed;strokeColor=#000000;fillColor=#000000;" parent="1" vertex="1">
                    <mxGeometry x="495" y="500" width="15" height="15" as="geometry"/>
                </mxCell>
            </root>
        </mxGraphModel>
    </diagram>
</mxfile>